{"glyphs":{"0":{"ha":868,"x_min":0,"x_max":694,"o":"m 521 174 l 521 694 l 174 694 l 174 174 l 521 174 m 0 0 l 0 868 l 694 868 l 694 0 l 0 0 z "},"1":{"ha":521,"x_min":0,"x_max":347,"o":"m 174 0 l 174 694 l 0 694 l 0 868 l 347 868 l 347 0 l 174 0 z "},"2":{"ha":868,"x_min":0,"x_max":694,"o":"m 0 0 l 0 521 l 521 521 l 521 694 l 0 694 l 0 868 l 694 868 l 694 347 l 174 347 l 174 174 l 694 174 l 694 0 l 0 0 z "},"3":{"ha":868,"x_min":0,"x_max":694,"o":"m 0 0 l 0 174 l 521 174 l 521 347 l 0 347 l 0 521 l 521 521 l 521 694 l 0 694 l 0 868 l 694 868 l 694 0 l 0 0 z "},"4":{"ha":868,"x_min":0,"x_max":694,"o":"m 521 0 l 521 347 l 0 347 l 0 868 l 174 868 l 174 521 l 521 521 l 521 868 l 694 868 l 694 0 l 521 0 z "},"5":{"ha":868,"x_min":0,"x_max":694,"o":"m 0 0 l 0 174 l 521 174 l 521 347 l 0 347 l 0 868 l 694 868 l 694 694 l 174 694 l 174 521 l 694 521 l 694 0 l 0 0 z "},"6":{"ha":868,"x_min":0,"x_max":694,"o":"m 521 174 l 521 347 l 174 347 l 174 174 l 521 174 m 0 0 l 0 868 l 694 868 l 694 694 l 174 694 l 174 521 l 694 521 l 694 0 l 0 0 z "},"7":{"ha":868,"x_min":0,"x_max":694,"o":"m 174 0 l 174 347 l 347 347 l 347 0 l 174 0 m 347 347 l 347 521 l 521 521 l 521 347 l 347 347 m 521 521 l 521 694 l 0 694 l 0 868 l 694 868 l 694 521 l 521 521 z "},"8":{"ha":868,"x_min":0,"x_max":694,"o":"m 521 174 l 521 347 l 174 347 l 174 174 l 521 174 m 521 521 l 521 694 l 174 694 l 174 521 l 521 521 m 0 0 l 0 868 l 694 868 l 694 0 l 0 0 z "},"9":{"ha":868,"x_min":0,"x_max":694,"o":"m 521 521 l 521 694 l 174 694 l 174 521 l 521 521 m 0 0 l 0 174 l 521 174 l 521 347 l 0 347 l 0 868 l 694 868 l 694 0 l 0 0 z "}," ":{"ha":347,"x_min":0,"x_max":0,"o":""},"!":{"ha":347,"x_min":0,"x_max":174,"o":"m 0 0 l 0 174 l 174 174 l 174 0 l 0 0 m 0 347 l 0 868 l 174 868 l 174 347 l 0 347 z "},"\"":{"ha":694,"x_min":0,"x_max":521,"o":"m 0 521 l 0 868 l 174 868 l 174 521 l 0 521 m 347 521 l 347 868 l 521 868 l 521 521 l 347 521 z "},"#":{"ha":1042,"x_min":0,"x_max":868,"o":"m 521 347 l 521 521 l 347 521 l 347 347 l 521 347 m 174 0 l 174 174 l 0 174 l 0 347 l 174 347 l 174 521 l 0 521 l 0 694 l 174 694 l 174 868 l 347 868 l 347 694 l 521 694 l 521 868 l 694 868 l 694 694 l 868 694 l 868 521 l 694 521 l 694 347 l 868 347 l 868 174 l 694 174 l 694 0 l 521 0 l 521 174 l 347 174 l 347 0 l 174 0 z "},"$":{"ha":694,"x_min":0,"x_max":521,"o":"m 174 -174 l 174 0 l 0 0 l 0 174 l 347 174 l 347 347 l 0 347 l 0 868 l 174 868 l 174 1042 l 347 1042 l 347 868 l 521 868 l 521 694 l 174 694 l 174 521 l 521 521 l 521 0 l 347 0 l 347 -174 l 174 -174 z "},"%":{"ha":1042,"x_min":0,"x_max":868,"o":"m 0 0 l 0 174 l 174 174 l 174 0 l 0 0 m 694 0 l 694 174 l 868 174 l 868 0 l 694 0 m 174 174 l 174 347 l 347 347 l 347 174 l 174 174 m 347 347 l 347 521 l 521 521 l 521 347 l 347 347 m 521 521 l 521 694 l 694 694 l 694 521 l 521 521 m 0 694 l 0 868 l 174 868 l 174 694 l 0 694 m 694 694 l 694 868 l 868 868 l 868 694 l 694 694 z "},"&":{"ha":1042,"x_min":0,"x_max":868,"o":"m 694 521 l 694 694 l 174 694 l 174 521 l 694 521 m 347 -174 l 347 0 l 0 0 l 0 868 l 347 868 l 347 1042 l 521 1042 l 521 868 l 868 868 l 868 347 l 174 347 l 174 174 l 694 174 l 694 0 l 521 0 l 521 -174 l 347 -174 z "},"'":{"ha":347,"x_min":0,"x_max":174,"o":"m 0 521 l 0 868 l 174 868 l 174 521 l 0 521 z "},"(":{"ha":521,"x_min":0,"x_max":347,"o":"m 174 0 l 174 174 l 347 174 l 347 0 l 174 0 m 0 174 l 0 694 l 174 694 l 174 174 l 0 174 m 174 694 l 174 868 l 347 868 l 347 694 l 174 694 z "},")":{"ha":521,"x_min":0,"x_max":347,"o":"m 0 0 l 0 174 l 174 174 l 174 0 l 0 0 m 174 174 l 174 694 l 347 694 l 347 174 l 174 174 m 0 694 l 0 868 l 174 868 l 174 694 l 0 694 z "},"*":{"ha":694,"x_min":0,"x_max":521,"o":"m 174 347 l 174 521 l 347 521 l 347 347 l 174 347 m 0 521 l 0 694 l 174 694 l 174 521 l 0 521 m 347 521 l 347 694 l 521 694 l 521 521 l 347 521 m 174 694 l 174 868 l 347 868 l 347 694 l 174 694 z "},"+":{"ha":694,"x_min":0,"x_max":521,"o":"m 174 174 l 174 347 l 0 347 l 0 521 l 174 521 l 174 694 l 347 694 l 347 521 l 521 521 l 521 347 l 347 347 l 347 174 l 174 174 z "},",":{"ha":347,"x_min":0,"x_max":174,"o":"m 0 -174 l 0 174 l 174 174 l 174 -174 l 0 -174 z "},"-":{"ha":694,"x_min":0,"x_max":521,"o":"m 0 347 l 0 521 l 521 521 l 521 347 l 0 347 z "},".":{"ha":347,"x_min":0,"x_max":174,"o":"m 0 0 l 0 174 l 174 174 l 174 0 l 0 0 z "},"/":{"ha":1042,"x_min":0,"x_max":868,"o":"m 0 0 l 0 174 l 174 174 l 174 0 l 0 0 m 174 174 l 174 347 l 347 347 l 347 174 l 174 174 m 347 347 l 347 521 l 521 521 l 521 347 l 347 347 m 521 521 l 521 694 l 694 694 l 694 521 l 521 521 m 694 694 l 694 868 l 868 868 l 868 694 l 694 694 z "},":":{"ha":347,"x_min":0,"x_max":174,"o":"m 0 174 l 0 347 l 174 347 l 174 174 l 0 174 m 0 521 l 0 694 l 174 694 l 174 521 l 0 521 z "},";":{"ha":347,"x_min":0,"x_max":174,"o":"m 0 0 l 0 347 l 174 347 l 174 0 l 0 0 m 0 521 l 0 694 l 174 694 l 174 521 l 0 521 z "},"<":{"ha":694,"x_min":0,"x_max":521,"o":"m 347 0 l 347 174 l 521 174 l 521 0 l 347 0 m 174 174 l 174 347 l 347 347 l 347 174 l 174 174 m 0 347 l 0 521 l 174 521 l 174 347 l 0 347 m 174 521 l 174 694 l 347 694 l 347 521 l 174 521 m 347 694 l 347 868 l 521 868 l 521 694 l 347 694 z "},"=":{"ha":694,"x_min":0,"x_max":521,"o":"m 0 174 l 0 347 l 521 347 l 521 174 l 0 174 m 0 521 l 0 694 l 521 694 l 521 521 l 0 521 z "},">":{"ha":694,"x_min":0,"x_max":521,"o":"m 0 0 l 0 174 l 174 174 l 174 0 l 0 0 m 174 174 l 174 347 l 347 347 l 347 174 l 174 174 m 347 347 l 347 521 l 521 521 l 521 347 l 347 347 m 174 521 l 174 694 l 347 694 l 347 521 l 174 521 m 0 694 l 0 868 l 174 868 l 174 694 l 0 694 z "},"?":{"ha":868,"x_min":0,"x_max":694,"o":"m 174 0 l 174 174 l 347 174 l 347 0 l 174 0 m 174 347 l 174 521 l 521 521 l 521 694 l 0 694 l 0 868 l 694 868 l 694 347 l 174 347 z "},"@":{"ha":868,"x_min":0,"x_max":694,"o":"m 0 0 l 0 868 l 694 868 l 694 347 l 347 347 l 347 521 l 521 521 l 521 694 l 174 694 l 174 174 l 694 174 l 694 0 l 0 0 z "},"A":{"ha":868,"x_min":0,"x_max":694,"o":"m 521 521 l 521 694 l 174 694 l 174 521 l 521 521 m 0 0 l 0 868 l 694 868 l 694 0 l 521 0 l 521 347 l 174 347 l 174 0 l 0 0 z "},"B":{"ha":868,"x_min":0,"x_max":694,"o":"m 0 0 l 0 868 l 694 868 l 694 521 l 521 521 l 521 694 l 174 694 l 174 521 l 521 521 l 521 347 l 174 347 l 174 174 l 521 174 l 521 347 l 694 347 l 694 0 l 0 0 z "},"C":{"ha":868,"x_min":0,"x_max":694,"o":"m 0 0 l 0 868 l 694 868 l 694 694 l 174 694 l 174 174 l 694 174 l 694 0 l 0 0 z "},"D":{"ha":868,"x_min":0,"x_max":694,"o":"m 521 174 l 521 694 l 694 694 l 694 174 l 521 174 m 0 0 l 0 868 l 521 868 l 521 694 l 174 694 l 174 174 l 521 174 l 521 0 l 0 0 z "},"E":{"ha":868,"x_min":0,"x_max":694,"o":"m 0 0 l 0 868 l 694 868 l 694 694 l 174 694 l 174 521 l 694 521 l 694 347 l 174 347 l 174 174 l 694 174 l 694 0 l 0 0 z "},"F":{"ha":868,"x_min":0,"x_max":694,"o":"m 0 0 l 0 868 l 694 868 l 694 694 l 174 694 l 174 521 l 694 521 l 694 347 l 174 347 l 174 0 l 0 0 z "},"G":{"ha":868,"x_min":0,"x_max":694,"o":"m 0 0 l 0 868 l 694 868 l 694 694 l 174 694 l 174 174 l 521 174 l 521 347 l 347 347 l 347 521 l 694 521 l 694 0 l 0 0 z "},"H":{"ha":868,"x_min":0,"x_max":694,"o":"m 0 0 l 0 868 l 174 868 l 174 521 l 521 521 l 521 868 l 694 868 l 694 0 l 521 0 l 521 347 l 174 347 l 174 0 l 0 0 z "},"I":{"ha":347,"x_min":0,"x_max":174,"o":"m 0 0 l 0 868 l 174 868 l 174 0 l 0 0 z "},"J":{"ha":694,"x_min":0,"x_max":521,"o":"m 0 0 l 0 174 l 347 174 l 347 0 l 0 0 m 347 174 l 347 694 l 0 694 l 0 868 l 521 868 l 521 174 l 347 174 z "},"K":{"ha":868,"x_min":0,"x_max":694,"o":"m 521 0 l 521 347 l 694 347 l 694 0 l 521 0 m 0 0 l 0 868 l 174 868 l 174 521 l 521 521 l 521 347 l 174 347 l 174 0 l 0 0 m 521 521 l 521 868 l 694 868 l 694 521 l 521 521 z "},"L":{"ha":694,"x_min":0,"x_max":521,"o":"m 0 0 l 0 868 l 174 868 l 174 174 l 521 174 l 521 0 l 0 0 z "},"M":{"ha":1042,"x_min":0,"x_max":868,"o":"m 0 0 l 0 868 l 868 868 l 868 0 l 694 0 l 694 694 l 521 694 l 521 0 l 347 0 l 347 694 l 174 694 l 174 0 l 0 0 z "},"N":{"ha":868,"x_min":0,"x_max":694,"o":"m 0 0 l 0 868 l 694 868 l 694 0 l 521 0 l 521 694 l 174 694 l 174 0 l 0 0 z "},"O":{"ha":868,"x_min":0,"x_max":694,"o":"m 521 174 l 521 694 l 174 694 l 174 174 l 521 174 m 0 0 l 0 868 l 694 868 l 694 0 l 0 0 z "},"P":{"ha":868,"x_min":0,"x_max":694,"o":"m 521 521 l 521 694 l 174 694 l 174 521 l 521 521 m 0 0 l 0 868 l 694 868 l 694 347 l 174 347 l 174 0 l 0 0 z "},"Q":{"ha":868,"x_min":0,"x_max":694,"o":"m 347 174 l 347 347 l 521 347 l 521 694 l 174 694 l 174 174 l 347 174 m 0 0 l 0 868 l 694 868 l 694 0 l 0 0 z "},"R":{"ha":868,"x_min":0,"x_max":694,"o":"m 521 0 l 521 347 l 694 347 l 694 0 l 521 0 m 0 0 l 0 868 l 694 868 l 694 521 l 521 521 l 521 694 l 174 694 l 174 521 l 521 521 l 521 347 l 174 347 l 174 0 l 0 0 z "},"S":{"ha":868,"x_min":0,"x_max":694,"o":"m 0 0 l 0 174 l 521 174 l 521 347 l 0 347 l 0 868 l 694 868 l 694 694 l 174 694 l 174 521 l 694 521 l 694 0 l 0 0 z "},"T":{"ha":694,"x_min":0,"x_max":521,"o":"m 174 0 l 174 694 l 0 694 l 0 868 l 521 868 l 521 694 l 347 694 l 347 0 l 174 0 z "},"U":{"ha":868,"x_min":0,"x_max":694,"o":"m 0 0 l 0 868 l 174 868 l 174 174 l 521 174 l 521 868 l 694 868 l 694 0 l 0 0 z "},"V":{"ha":1042,"x_min":0,"x_max":868,"o":"m 347 0 l 347 174 l 521 174 l 521 0 l 347 0 m 174 174 l 174 347 l 347 347 l 347 174 l 174 174 m 521 174 l 521 347 l 694 347 l 694 174 l 521 174 m 0 347 l 0 868 l 174 868 l 174 347 l 0 347 m 694 347 l 694 868 l 868 868 l 868 347 l 694 347 z "},"W":{"ha":1042,"x_min":0,"x_max":868,"o":"m 0 0 l 0 868 l 174 868 l 174 174 l 347 174 l 347 868 l 521 868 l 521 174 l 694 174 l 694 868 l 868 868 l 868 0 l 0 0 z "},"X":{"ha":868,"x_min":0,"x_max":694,"o":"m 0 0 l 0 347 l 174 347 l 174 0 l 0 0 m 521 0 l 521 347 l 694 347 l 694 0 l 521 0 m 174 347 l 174 521 l 521 521 l 521 347 l 174 347 m 0 521 l 0 868 l 174 868 l 174 521 l 0 521 m 521 521 l 521 868 l 694 868 l 694 521 l 521 521 z "},"Y":{"ha":868,"x_min":0,"x_max":694,"o":"m 174 0 l 174 174 l 521 174 l 521 347 l 0 347 l 0 868 l 174 868 l 174 521 l 521 521 l 521 868 l 694 868 l 694 0 l 174 0 z "},"Z":{"ha":868,"x_min":0,"x_max":694,"o":"m 0 0 l 0 347 l 174 347 l 174 174 l 694 174 l 694 0 l 0 0 m 174 347 l 174 521 l 521 521 l 521 347 l 174 347 m 521 521 l 521 694 l 0 694 l 0 868 l 694 868 l 694 521 l 521 521 z "},"[":{"ha":521,"x_min":0,"x_max":347,"o":"m 0 0 l 0 868 l 347 868 l 347 694 l 174 694 l 174 174 l 347 174 l 347 0 l 0 0 z "},"\\":{"ha":1042,"x_min":0,"x_max":868,"o":"m 694 0 l 694 174 l 868 174 l 868 0 l 694 0 m 521 174 l 521 347 l 694 347 l 694 174 l 521 174 m 347 347 l 347 521 l 521 521 l 521 347 l 347 347 m 174 521 l 174 694 l 347 694 l 347 521 l 174 521 m 0 694 l 0 868 l 174 868 l 174 694 l 0 694 z "},"]":{"ha":521,"x_min":0,"x_max":347,"o":"m 0 0 l 0 174 l 174 174 l 174 694 l 0 694 l 0 868 l 347 868 l 347 0 l 0 0 z "},"^":{"ha":694,"x_min":0,"x_max":521,"o":"m 0 521 l 0 694 l 174 694 l 174 521 l 0 521 m 347 521 l 347 694 l 521 694 l 521 521 l 347 521 m 174 694 l 174 868 l 347 868 l 347 694 l 174 694 z "},"_":{"ha":868,"x_min":0,"x_max":694,"o":"m 0 0 l 0 174 l 694 174 l 694 0 l 0 0 z "},"`":{"ha":868,"x_min":521,"x_max":694,"o":"m 521 521 l 521 868 l 694 868 l 694 521 l 521 521 z "},"a":{"ha":868,"x_min":0,"x_max":694,"o":"m 521 521 l 521 694 l 174 694 l 174 521 l 521 521 m 0 0 l 0 868 l 694 868 l 694 0 l 521 0 l 521 347 l 174 347 l 174 0 l 0 0 z "},"b":{"ha":868,"x_min":0,"x_max":694,"o":"m 0 0 l 0 868 l 694 868 l 694 521 l 521 521 l 521 694 l 174 694 l 174 521 l 521 521 l 521 347 l 174 347 l 174 174 l 521 174 l 521 347 l 694 347 l 694 0 l 0 0 z "},"c":{"ha":868,"x_min":0,"x_max":694,"o":"m 0 0 l 0 868 l 694 868 l 694 694 l 174 694 l 174 174 l 694 174 l 694 0 l 0 0 z "},"d":{"ha":868,"x_min":0,"x_max":694,"o":"m 521 174 l 521 694 l 694 694 l 694 174 l 521 174 m 0 0 l 0 868 l 521 868 l 521 694 l 174 694 l 174 174 l 521 174 l 521 0 l 0 0 z "},"e":{"ha":868,"x_min":0,"x_max":694,"o":"m 0 0 l 0 868 l 694 868 l 694 694 l 174 694 l 174 521 l 694 521 l 694 347 l 174 347 l 174 174 l 694 174 l 694 0 l 0 0 z "},"f":{"ha":868,"x_min":0,"x_max":694,"o":"m 0 0 l 0 868 l 694 868 l 694 694 l 174 694 l 174 521 l 694 521 l 694 347 l 174 347 l 174 0 l 0 0 z "},"g":{"ha":868,"x_min":0,"x_max":694,"o":"m 0 0 l 0 868 l 694 868 l 694 694 l 174 694 l 174 174 l 521 174 l 521 347 l 347 347 l 347 521 l 694 521 l 694 0 l 0 0 z "},"h":{"ha":868,"x_min":0,"x_max":694,"o":"m 0 0 l 0 868 l 174 868 l 174 521 l 521 521 l 521 868 l 694 868 l 694 0 l 521 0 l 521 347 l 174 347 l 174 0 l 0 0 z "},"i":{"ha":347,"x_min":0,"x_max":174,"o":"m 0 0 l 0 868 l 174 868 l 174 0 l 0 0 z "},"j":{"ha":694,"x_min":0,"x_max":521,"o":"m 0 0 l 0 174 l 347 174 l 347 0 l 0 0 m 347 174 l 347 694 l 0 694 l 0 868 l 521 868 l 521 174 l 347 174 z "},"k":{"ha":868,"x_min":0,"x_max":694,"o":"m 521 0 l 521 347 l 694 347 l 694 0 l 521 0 m 0 0 l 0 868 l 174 868 l 174 521 l 521 521 l 521 347 l 174 347 l 174 0 l 0 0 m 521 521 l 521 868 l 694 868 l 694 521 l 521 521 z "},"l":{"ha":694,"x_min":0,"x_max":521,"o":"m 0 0 l 0 868 l 174 868 l 174 174 l 521 174 l 521 0 l 0 0 z "},"m":{"ha":1042,"x_min":0,"x_max":868,"o":"m 0 0 l 0 868 l 868 868 l 868 0 l 694 0 l 694 694 l 521 694 l 521 0 l 347 0 l 347 694 l 174 694 l 174 0 l 0 0 z "},"n":{"ha":868,"x_min":0,"x_max":694,"o":"m 0 0 l 0 868 l 694 868 l 694 0 l 521 0 l 521 694 l 174 694 l 174 0 l 0 0 z "},"o":{"ha":868,"x_min":0,"x_max":694,"o":"m 521 174 l 521 694 l 174 694 l 174 174 l 521 174 m 0 0 l 0 868 l 694 868 l 694 0 l 0 0 z "},"p":{"ha":868,"x_min":0,"x_max":694,"o":"m 521 521 l 521 694 l 174 694 l 174 521 l 521 521 m 0 0 l 0 868 l 694 868 l 694 347 l 174 347 l 174 0 l 0 0 z "},"q":{"ha":868,"x_min":0,"x_max":694,"o":"m 347 174 l 347 347 l 521 347 l 521 694 l 174 694 l 174 174 l 347 174 m 0 0 l 0 868 l 694 868 l 694 0 l 0 0 z "},"r":{"ha":868,"x_min":0,"x_max":694,"o":"m 521 0 l 521 347 l 694 347 l 694 0 l 521 0 m 0 0 l 0 868 l 694 868 l 694 521 l 521 521 l 521 694 l 174 694 l 174 521 l 521 521 l 521 347 l 174 347 l 174 0 l 0 0 z "},"s":{"ha":868,"x_min":0,"x_max":694,"o":"m 0 0 l 0 174 l 521 174 l 521 347 l 0 347 l 0 868 l 694 868 l 694 694 l 174 694 l 174 521 l 694 521 l 694 0 l 0 0 z "},"t":{"ha":694,"x_min":0,"x_max":521,"o":"m 174 0 l 174 694 l 0 694 l 0 868 l 521 868 l 521 694 l 347 694 l 347 0 l 174 0 z "},"u":{"ha":868,"x_min":0,"x_max":694,"o":"m 0 0 l 0 868 l 174 868 l 174 174 l 521 174 l 521 868 l 694 868 l 694 0 l 0 0 z "},"v":{"ha":1042,"x_min":0,"x_max":868,"o":"m 347 0 l 347 174 l 521 174 l 521 0 l 347 0 m 174 174 l 174 347 l 347 347 l 347 174 l 174 174 m 521 174 l 521 347 l 694 347 l 694 174 l 521 174 m 0 347 l 0 868 l 174 868 l 174 347 l 0 347 m 694 347 l 694 868 l 868 868 l 868 347 l 694 347 z "},"w":{"ha":1042,"x_min":0,"x_max":868,"o":"m 0 0 l 0 868 l 174 868 l 174 174 l 347 174 l 347 868 l 521 868 l 521 174 l 694 174 l 694 868 l 868 868 l 868 0 l 0 0 z "},"x":{"ha":868,"x_min":0,"x_max":694,"o":"m 0 0 l 0 347 l 174 347 l 174 0 l 0 0 m 521 0 l 521 347 l 694 347 l 694 0 l 521 0 m 174 347 l 174 521 l 521 521 l 521 347 l 174 347 m 0 521 l 0 868 l 174 868 l 174 521 l 0 521 m 521 521 l 521 868 l 694 868 l 694 521 l 521 521 z "},"y":{"ha":868,"x_min":0,"x_max":694,"o":"m 174 0 l 174 174 l 521 174 l 521 347 l 0 347 l 0 868 l 174 868 l 174 521 l 521 521 l 521 868 l 694 868 l 694 0 l 174 0 z "},"z":{"ha":868,"x_min":0,"x_max":694,"o":"m 0 0 l 0 347 l 174 347 l 174 174 l 694 174 l 694 0 l 0 0 m 174 347 l 174 521 l 521 521 l 521 347 l 174 347 m 521 521 l 521 694 l 0 694 l 0 868 l 694 868 l 694 521 l 521 521 z "},"{":{"ha":694,"x_min":0,"x_max":521,"o":"m 347 0 l 347 174 l 521 174 l 521 0 l 347 0 m 174 174 l 174 347 l 0 347 l 0 521 l 174 521 l 174 694 l 347 694 l 347 174 l 174 174 m 347 694 l 347 868 l 521 868 l 521 694 l 347 694 z "},"|":{"ha":347,"x_min":0,"x_max":174,"o":"m 0 0 l 0 868 l 174 868 l 174 0 l 0 0 z "},"}":{"ha":694,"x_min":0,"x_max":521,"o":"m 0 0 l 0 174 l 174 174 l 174 0 l 0 0 m 174 174 l 174 694 l 347 694 l 347 521 l 521 521 l 521 347 l 347 347 l 347 174 l 174 174 m 0 694 l 0 868 l 174 868 l 174 694 l 0 694 z "},"~":{"ha":868,"x_min":0,"x_max":694,"o":"m 0 347 l 0 521 l 174 521 l 174 347 l 0 347 m 347 347 l 347 521 l 521 521 l 521 347 l 347 347 m 174 521 l 174 694 l 347 694 l 347 521 l 174 521 m 521 521 l 521 694 l 694 694 l 694 521 l 521 521 z "},"¡":{"ha":347,"x_min":0,"x_max":174,"o":"m 0 0 l 0 521 l 174 521 l 174 0 l 0 0 m 0 694 l 0 868 l 174 868 l 174 694 l 0 694 z "},"¢":{"ha":694,"x_min":0,"x_max":521,"o":"m 174 0 l 174 174 l 0 174 l 0 694 l 174 694 l 174 868 l 347 868 l 347 694 l 521 694 l 521 521 l 174 521 l 174 347 l 521 347 l 521 174 l 347 174 l 347 0 l 174 0 z "},"£":{"ha":868,"x_min":-174,"x_max":694,"o":"m 0 0 l 0 347 l -174 347 l -174 521 l 0 521 l 0 868 l 694 868 l 694 521 l 521 521 l 521 694 l 174 694 l 174 521 l 347 521 l 347 347 l 174 347 l 174 174 l 694 174 l 694 0 l 0 0 z "},"¤":{"ha":1215,"x_min":0,"x_max":1042,"o":"m 0 174 l 0 347 l 174 347 l 174 174 l 0 174 m 347 174 l 347 347 l 694 347 l 694 174 l 347 174 m 868 174 l 868 347 l 1042 347 l 1042 174 l 868 174 m 174 347 l 174 694 l 347 694 l 347 347 l 174 347 m 694 347 l 694 694 l 868 694 l 868 347 l 694 347 m 0 694 l 0 868 l 174 868 l 174 694 l 0 694 m 347 694 l 347 868 l 694 868 l 694 694 l 347 694 m 868 694 l 868 868 l 1042 868 l 1042 694 l 868 694 z "},"¥":{"ha":1042,"x_min":0,"x_max":868,"o":"m 347 0 l 347 174 l 174 174 l 174 347 l 347 347 l 347 521 l 174 521 l 174 694 l 694 694 l 694 521 l 521 521 l 521 347 l 694 347 l 694 174 l 521 174 l 521 0 l 347 0 m 0 694 l 0 868 l 174 868 l 174 694 l 0 694 m 694 694 l 694 868 l 868 868 l 868 694 l 694 694 z "},"¦":{"ha":347,"x_min":0,"x_max":174,"o":"m 0 0 l 0 347 l 174 347 l 174 0 l 0 0 m 0 521 l 0 868 l 174 868 l 174 521 l 0 521 z "},"§":{"ha":868,"x_min":174,"x_max":694,"o":"m 174 -174 l 174 0 l 521 0 l 521 174 l 694 174 l 694 -174 l 174 -174 m 174 174 l 174 521 l 347 521 l 347 347 l 521 347 l 521 174 l 174 174 m 521 347 l 521 521 l 347 521 l 347 694 l 694 694 l 694 347 l 521 347 m 174 694 l 174 1042 l 694 1042 l 694 868 l 347 868 l 347 694 l 174 694 z "},"¨":{"ha":868,"x_min":0,"x_max":694,"o":"m 0 694 l 0 868 l 174 868 l 174 694 l 0 694 m 521 694 l 521 868 l 694 868 l 694 694 l 521 694 z "},"©":{"ha":1042,"x_min":0,"x_max":868,"o":"m 347 347 l 347 521 l 521 521 l 521 347 l 347 347 m 694 174 l 694 694 l 174 694 l 174 174 l 694 174 m 0 0 l 0 868 l 868 868 l 868 0 l 0 0 z "},"ª":{"ha":868,"x_min":0,"x_max":694,"o":"m 174 347 l 174 521 l 347 521 l 347 347 l 174 347 m 521 347 l 521 521 l 694 521 l 694 347 l 521 347 m 0 521 l 0 694 l 174 694 l 174 521 l 0 521 m 347 521 l 347 694 l 174 694 l 174 868 l 347 868 l 347 1042 l 521 1042 l 521 521 l 347 521 m 0 1042 l 0 1215 l 347 1215 l 347 1042 l 0 1042 z "},"«":{"ha":1215,"x_min":0,"x_max":1042,"o":"m 347 0 l 347 174 l 521 174 l 521 0 l 347 0 m 868 0 l 868 174 l 1042 174 l 1042 0 l 868 0 m 174 174 l 174 347 l 347 347 l 347 174 l 174 174 m 694 174 l 694 347 l 868 347 l 868 174 l 694 174 m 0 347 l 0 521 l 174 521 l 174 347 l 0 347 m 521 347 l 521 521 l 694 521 l 694 347 l 521 347 m 174 521 l 174 694 l 347 694 l 347 521 l 174 521 m 694 521 l 694 694 l 868 694 l 868 521 l 694 521 m 347 694 l 347 868 l 521 868 l 521 694 l 347 694 m 868 694 l 868 868 l 1042 868 l 1042 694 l 868 694 z "},"¬":{"ha":868,"x_min":0,"x_max":694,"o":"m 521 174 l 521 347 l 0 347 l 0 521 l 694 521 l 694 174 l 521 174 z "},"­":{"ha":694,"x_min":174,"x_max":521,"o":"m 174 347 l 174 521 l 521 521 l 521 347 l 174 347 z "},"®":{"ha":1042,"x_min":0,"x_max":868,"o":"m 347 347 l 347 521 l 521 521 l 521 347 l 347 347 m 694 174 l 694 694 l 174 694 l 174 174 l 694 174 m 0 0 l 0 868 l 868 868 l 868 0 l 0 0 z "},"¯":{"ha":868,"x_min":0,"x_max":694,"o":"m 0 694 l 0 868 l 694 868 l 694 694 l 0 694 z "},"°":{"ha":694,"x_min":0,"x_max":521,"o":"m 347 694 l 347 868 l 174 868 l 174 694 l 347 694 m 0 521 l 0 1042 l 521 1042 l 521 521 l 0 521 z "},"±":{"ha":868,"x_min":174,"x_max":694,"o":"m 174 174 l 174 347 l 694 347 l 694 174 l 174 174 m 347 521 l 347 694 l 174 694 l 174 868 l 347 868 l 347 1042 l 521 1042 l 521 868 l 694 868 l 694 694 l 521 694 l 521 521 l 347 521 z "},"²":{"ha":694,"x_min":0,"x_max":521,"o":"m 0 174 l 0 694 l 347 694 l 347 868 l 0 868 l 0 1042 l 521 1042 l 521 521 l 174 521 l 174 347 l 521 347 l 521 174 l 0 174 z "},"³":{"ha":694,"x_min":0,"x_max":521,"o":"m 0 174 l 0 347 l 347 347 l 347 521 l 0 521 l 0 694 l 347 694 l 347 868 l 0 868 l 0 1042 l 521 1042 l 521 174 l 0 174 z "},"´":{"ha":521,"x_min":0,"x_max":347,"o":"m 0 1042 l 0 1215 l 347 1215 l 347 1042 l 0 1042 z "},"µ":{"ha":868,"x_min":0,"x_max":694,"o":"m 0 -174 l 0 694 l 174 694 l 174 174 l 521 174 l 521 694 l 694 694 l 694 0 l 174 0 l 174 -174 l 0 -174 z "},"¶":{"ha":868,"x_min":0,"x_max":694,"o":"m 174 -174 l 174 347 l 0 347 l 0 868 l 694 868 l 694 -174 l 521 -174 l 521 694 l 347 694 l 347 -174 l 174 -174 z "},"·":{"ha":347,"x_min":0,"x_max":174,"o":"m 0 347 l 0 521 l 174 521 l 174 347 l 0 347 z "},"¸":{"ha":521,"x_min":0,"x_max":347,"o":"m 0 -347 l 0 -174 l 174 -174 l 174 0 l 347 0 l 347 -347 l 0 -347 m 0 0 l 0 174 l 174 174 l 174 0 l 0 0 z "},"¹":{"ha":521,"x_min":0,"x_max":347,"o":"m 174 521 l 174 868 l 347 868 l 347 521 l 174 521 m 0 868 l 0 1042 l 174 1042 l 174 868 l 0 868 z "},"º":{"ha":868,"x_min":174,"x_max":694,"o":"m 521 694 l 521 1042 l 347 1042 l 347 694 l 521 694 m 174 521 l 174 1215 l 694 1215 l 694 521 l 174 521 z "},"»":{"ha":1215,"x_min":0,"x_max":1042,"o":"m 0 0 l 0 174 l 174 174 l 174 0 l 0 0 m 521 0 l 521 174 l 694 174 l 694 0 l 521 0 m 174 174 l 174 347 l 347 347 l 347 174 l 174 174 m 694 174 l 694 347 l 868 347 l 868 174 l 694 174 m 347 347 l 347 521 l 521 521 l 521 347 l 347 347 m 868 347 l 868 521 l 1042 521 l 1042 347 l 868 347 m 174 521 l 174 694 l 347 694 l 347 521 l 174 521 m 694 521 l 694 694 l 868 694 l 868 521 l 694 521 m 0 694 l 0 868 l 174 868 l 174 694 l 0 694 m 521 694 l 521 868 l 694 868 l 694 694 l 521 694 z "},"¼":{"ha":1215,"x_min":0,"x_max":1042,"o":"m 0 0 l 0 174 l 174 174 l 174 0 l 0 0 m 174 174 l 174 347 l 347 347 l 347 174 l 174 174 m 694 0 l 694 347 l 1042 347 l 1042 0 l 694 0 m 347 347 l 347 521 l 521 521 l 521 347 l 347 347 m 521 521 l 521 694 l 694 694 l 694 521 l 521 521 m 0 694 l 0 868 l 174 868 l 174 694 l 0 694 m 694 694 l 694 868 l 868 868 l 868 694 l 694 694 z "},"½":{"ha":1215,"x_min":0,"x_max":1042,"o":"m 0 0 l 0 174 l 174 174 l 174 0 l 0 0 m 694 0 l 694 174 l 1042 174 l 1042 0 l 694 0 m 174 174 l 174 347 l 347 347 l 347 174 l 174 174 m 347 347 l 347 521 l 521 521 l 521 347 l 347 347 m 521 521 l 521 694 l 694 694 l 694 521 l 521 521 m 0 694 l 0 868 l 174 868 l 174 694 l 0 694 m 694 694 l 694 868 l 868 868 l 868 694 l 694 694 z "},"¾":{"ha":1215,"x_min":0,"x_max":1042,"o":"m 0 0 l 0 174 l 174 174 l 174 0 l 0 0 m 174 174 l 174 347 l 347 347 l 347 174 l 174 174 m 694 0 l 694 347 l 1042 347 l 1042 0 l 694 0 m 347 347 l 347 521 l 521 521 l 521 347 l 347 347 m 521 521 l 521 694 l 694 694 l 694 521 l 521 521 m 0 521 l 0 868 l 347 868 l 347 694 l 174 694 l 174 521 l 0 521 m 694 694 l 694 868 l 868 868 l 868 694 l 694 694 z "},"¿":{"ha":868,"x_min":0,"x_max":694,"o":"m 0 0 l 0 521 l 521 521 l 521 347 l 174 347 l 174 174 l 694 174 l 694 0 l 0 0 m 347 694 l 347 868 l 521 868 l 521 694 l 347 694 z "},"À":{"ha":868,"x_min":0,"x_max":694,"o":"m 521 521 l 521 694 l 174 694 l 174 521 l 521 521 m 0 0 l 0 868 l 694 868 l 694 0 l 521 0 l 521 347 l 174 347 l 174 0 l 0 0 m 0 1042 l 0 1215 l 347 1215 l 347 1042 l 0 1042 z "},"Á":{"ha":868,"x_min":0,"x_max":694,"o":"m 521 521 l 521 694 l 174 694 l 174 521 l 521 521 m 0 0 l 0 868 l 694 868 l 694 0 l 521 0 l 521 347 l 174 347 l 174 0 l 0 0 m 347 1042 l 347 1215 l 694 1215 l 694 1042 l 347 1042 z "},"Â":{"ha":868,"x_min":0,"x_max":694,"o":"m 521 521 l 521 694 l 174 694 l 174 521 l 521 521 m 0 0 l 0 868 l 694 868 l 694 0 l 521 0 l 521 347 l 174 347 l 174 0 l 0 0 m 0 1042 l 0 1215 l 174 1215 l 174 1042 l 0 1042 m 521 1042 l 521 1215 l 694 1215 l 694 1042 l 521 1042 m 174 1215 l 174 1389 l 521 1389 l 521 1215 l 174 1215 z "},"Ã":{"ha":868,"x_min":0,"x_max":694,"o":"m 521 521 l 521 694 l 174 694 l 174 521 l 521 521 m 0 0 l 0 868 l 694 868 l 694 0 l 521 0 l 521 347 l 174 347 l 174 0 l 0 0 m 0 1042 l 0 1215 l 174 1215 l 174 1042 l 0 1042 m 347 1042 l 347 1215 l 521 1215 l 521 1042 l 347 1042 m 174 1215 l 174 1389 l 347 1389 l 347 1215 l 174 1215 m 521 1215 l 521 1389 l 694 1389 l 694 1215 l 521 1215 z "},"Ä":{"ha":868,"x_min":0,"x_max":694,"o":"m 521 521 l 521 694 l 174 694 l 174 521 l 521 521 m 0 0 l 0 868 l 694 868 l 694 0 l 521 0 l 521 347 l 174 347 l 174 0 l 0 0 m 0 1042 l 0 1215 l 174 1215 l 174 1042 l 0 1042 m 521 1042 l 521 1215 l 694 1215 l 694 1042 l 521 1042 z "},"Å":{"ha":868,"x_min":0,"x_max":694,"o":"m 521 521 l 521 694 l 174 694 l 174 521 l 521 521 m 0 0 l 0 868 l 694 868 l 694 0 l 521 0 l 521 347 l 174 347 l 174 0 l 0 0 m 174 1042 l 174 1215 l 521 1215 l 521 1042 l 174 1042 z "},"Æ":{"ha":1215,"x_min":0,"x_max":1042,"o":"m 0 0 l 0 347 l 174 347 l 174 0 l 0 0 m 521 0 l 521 347 l 174 347 l 174 694 l 347 694 l 347 521 l 521 521 l 521 694 l 347 694 l 347 868 l 1042 868 l 1042 694 l 694 694 l 694 521 l 1042 521 l 1042 347 l 694 347 l 694 174 l 1042 174 l 1042 0 l 521 0 z "},"Ç":{"ha":868,"x_min":0,"x_max":694,"o":"m 347 -347 l 347 -174 l 521 -174 l 521 -347 l 347 -347 m 521 -174 l 521 0 l 0 0 l 0 868 l 694 868 l 694 694 l 174 694 l 174 174 l 694 174 l 694 -174 l 521 -174 z "},"È":{"ha":868,"x_min":0,"x_max":694,"o":"m 0 0 l 0 868 l 694 868 l 694 694 l 174 694 l 174 521 l 694 521 l 694 347 l 174 347 l 174 174 l 694 174 l 694 0 l 0 0 m 0 1042 l 0 1215 l 347 1215 l 347 1042 l 0 1042 z "},"É":{"ha":868,"x_min":0,"x_max":694,"o":"m 0 0 l 0 868 l 694 868 l 694 694 l 174 694 l 174 521 l 694 521 l 694 347 l 174 347 l 174 174 l 694 174 l 694 0 l 0 0 m 347 1042 l 347 1215 l 694 1215 l 694 1042 l 347 1042 z "},"Ê":{"ha":868,"x_min":0,"x_max":694,"o":"m 0 0 l 0 868 l 694 868 l 694 694 l 174 694 l 174 521 l 694 521 l 694 347 l 174 347 l 174 174 l 694 174 l 694 0 l 0 0 m 0 1042 l 0 1215 l 174 1215 l 174 1042 l 0 1042 m 521 1042 l 521 1215 l 694 1215 l 694 1042 l 521 1042 m 174 1215 l 174 1389 l 521 1389 l 521 1215 l 174 1215 z "},"Ë":{"ha":868,"x_min":0,"x_max":694,"o":"m 0 0 l 0 868 l 694 868 l 694 694 l 174 694 l 174 521 l 694 521 l 694 347 l 174 347 l 174 174 l 694 174 l 694 0 l 0 0 m 0 1042 l 0 1215 l 174 1215 l 174 1042 l 0 1042 m 521 1042 l 521 1215 l 694 1215 l 694 1042 l 521 1042 z "},"Ì":{"ha":347,"x_min":-174,"x_max":174,"o":"m 0 0 l 0 868 l 174 868 l 174 0 l 0 0 m -174 1042 l -174 1215 l 174 1215 l 174 1042 l -174 1042 z "},"Í":{"ha":521,"x_min":0,"x_max":347,"o":"m 0 0 l 0 868 l 174 868 l 174 0 l 0 0 m 0 1042 l 0 1215 l 347 1215 l 347 1042 l 0 1042 z "},"Î":{"ha":521,"x_min":-174,"x_max":347,"o":"m 0 0 l 0 868 l 174 868 l 174 0 l 0 0 m -174 1042 l -174 1215 l 0 1215 l 0 1042 l -174 1042 m 174 1042 l 174 1215 l 347 1215 l 347 1042 l 174 1042 m 0 1215 l 0 1389 l 174 1389 l 174 1215 l 0 1215 z "},"Ï":{"ha":521,"x_min":-174,"x_max":347,"o":"m 0 0 l 0 868 l 174 868 l 174 0 l 0 0 m -174 1042 l -174 1215 l 0 1215 l 0 1042 l -174 1042 m 174 1042 l 174 1215 l 347 1215 l 347 1042 l 174 1042 z "},"Ð":{"ha":868,"x_min":-174,"x_max":694,"o":"m 521 174 l 521 694 l 694 694 l 694 174 l 521 174 m 0 0 l 0 347 l -174 347 l -174 521 l 0 521 l 0 868 l 521 868 l 521 694 l 174 694 l 174 521 l 347 521 l 347 347 l 174 347 l 174 174 l 521 174 l 521 0 l 0 0 z "},"Ñ":{"ha":868,"x_min":0,"x_max":694,"o":"m 0 0 l 0 868 l 694 868 l 694 0 l 521 0 l 521 694 l 174 694 l 174 0 l 0 0 m 0 1042 l 0 1215 l 174 1215 l 174 1042 l 0 1042 m 347 1042 l 347 1215 l 521 1215 l 521 1042 l 347 1042 m 174 1215 l 174 1389 l 347 1389 l 347 1215 l 174 1215 m 521 1215 l 521 1389 l 694 1389 l 694 1215 l 521 1215 z "},"Ò":{"ha":868,"x_min":0,"x_max":694,"o":"m 521 174 l 521 694 l 174 694 l 174 174 l 521 174 m 0 0 l 0 868 l 694 868 l 694 0 l 0 0 m 0 1042 l 0 1215 l 347 1215 l 347 1042 l 0 1042 z "},"Ó":{"ha":868,"x_min":0,"x_max":694,"o":"m 521 174 l 521 694 l 174 694 l 174 174 l 521 174 m 0 0 l 0 868 l 694 868 l 694 0 l 0 0 m 347 1042 l 347 1215 l 694 1215 l 694 1042 l 347 1042 z "},"Ô":{"ha":868,"x_min":0,"x_max":694,"o":"m 521 174 l 521 694 l 174 694 l 174 174 l 521 174 m 0 0 l 0 868 l 694 868 l 694 0 l 0 0 m 0 1042 l 0 1215 l 174 1215 l 174 1042 l 0 1042 m 521 1042 l 521 1215 l 694 1215 l 694 1042 l 521 1042 m 174 1215 l 174 1389 l 521 1389 l 521 1215 l 174 1215 z "},"Õ":{"ha":868,"x_min":0,"x_max":694,"o":"m 521 174 l 521 694 l 174 694 l 174 174 l 521 174 m 0 0 l 0 868 l 694 868 l 694 0 l 0 0 m 0 1042 l 0 1215 l 174 1215 l 174 1042 l 0 1042 m 347 1042 l 347 1215 l 521 1215 l 521 1042 l 347 1042 m 174 1215 l 174 1389 l 347 1389 l 347 1215 l 174 1215 m 521 1215 l 521 1389 l 694 1389 l 694 1215 l 521 1215 z "},"Ö":{"ha":868,"x_min":0,"x_max":694,"o":"m 521 174 l 521 694 l 174 694 l 174 174 l 521 174 m 0 0 l 0 868 l 694 868 l 694 0 l 0 0 m 0 1042 l 0 1215 l 174 1215 l 174 1042 l 0 1042 m 521 1042 l 521 1215 l 694 1215 l 694 1042 l 521 1042 z "},"×":{"ha":1042,"x_min":0,"x_max":868,"o":"m 0 0 l 0 174 l 174 174 l 174 0 l 0 0 m 694 0 l 694 174 l 868 174 l 868 0 l 694 0 m 174 174 l 174 347 l 347 347 l 347 174 l 174 174 m 521 174 l 521 347 l 694 347 l 694 174 l 521 174 m 347 347 l 347 521 l 521 521 l 521 347 l 347 347 m 174 521 l 174 694 l 347 694 l 347 521 l 174 521 m 521 521 l 521 694 l 694 694 l 694 521 l 521 521 m 0 694 l 0 868 l 174 868 l 174 694 l 0 694 m 694 694 l 694 868 l 868 868 l 868 694 l 694 694 z "},"Ø":{"ha":868,"x_min":0,"x_max":694,"o":"m 521 174 l 521 347 l 347 347 l 347 521 l 521 521 l 521 694 l 174 694 l 174 347 l 347 347 l 347 174 l 521 174 m 0 0 l 0 868 l 694 868 l 694 0 l 0 0 z "},"Ù":{"ha":868,"x_min":0,"x_max":694,"o":"m 0 0 l 0 868 l 174 868 l 174 174 l 521 174 l 521 868 l 694 868 l 694 0 l 0 0 m 0 1042 l 0 1215 l 347 1215 l 347 1042 l 0 1042 z "},"Ú":{"ha":868,"x_min":0,"x_max":694,"o":"m 0 0 l 0 868 l 174 868 l 174 174 l 521 174 l 521 868 l 694 868 l 694 0 l 0 0 m 347 1042 l 347 1215 l 694 1215 l 694 1042 l 347 1042 z "},"Û":{"ha":868,"x_min":0,"x_max":694,"o":"m 0 0 l 0 868 l 174 868 l 174 174 l 521 174 l 521 868 l 694 868 l 694 0 l 0 0 m 0 1042 l 0 1215 l 174 1215 l 174 1042 l 0 1042 m 521 1042 l 521 1215 l 694 1215 l 694 1042 l 521 1042 m 174 1215 l 174 1389 l 521 1389 l 521 1215 l 174 1215 z "},"Ü":{"ha":868,"x_min":0,"x_max":694,"o":"m 0 0 l 0 868 l 174 868 l 174 174 l 521 174 l 521 868 l 694 868 l 694 0 l 0 0 m 0 1042 l 0 1215 l 174 1215 l 174 1042 l 0 1042 m 521 1042 l 521 1215 l 694 1215 l 694 1042 l 521 1042 z "},"Ý":{"ha":868,"x_min":0,"x_max":694,"o":"m 174 0 l 174 174 l 521 174 l 521 347 l 0 347 l 0 868 l 174 868 l 174 521 l 521 521 l 521 868 l 694 868 l 694 0 l 174 0 m 0 1042 l 0 1215 l 347 1215 l 347 1042 l 0 1042 z "},"Þ":{"ha":868,"x_min":0,"x_max":694,"o":"m 521 347 l 521 521 l 174 521 l 174 347 l 521 347 m 0 0 l 0 868 l 174 868 l 174 694 l 694 694 l 694 174 l 174 174 l 174 0 l 0 0 z "},"ß":{"ha":868,"x_min":0,"x_max":694,"o":"m 347 0 l 347 174 l 521 174 l 521 347 l 694 347 l 694 0 l 347 0 m 347 347 l 347 521 l 521 521 l 521 347 l 347 347 m 0 0 l 0 868 l 694 868 l 694 521 l 521 521 l 521 694 l 174 694 l 174 0 l 0 0 z "},"à":{"ha":868,"x_min":0,"x_max":694,"o":"m 521 521 l 521 694 l 174 694 l 174 521 l 521 521 m 0 0 l 0 868 l 694 868 l 694 0 l 521 0 l 521 347 l 174 347 l 174 0 l 0 0 m 0 1042 l 0 1215 l 347 1215 l 347 1042 l 0 1042 z "},"á":{"ha":868,"x_min":0,"x_max":694,"o":"m 521 521 l 521 694 l 174 694 l 174 521 l 521 521 m 0 0 l 0 868 l 694 868 l 694 0 l 521 0 l 521 347 l 174 347 l 174 0 l 0 0 m 347 1042 l 347 1215 l 694 1215 l 694 1042 l 347 1042 z "},"â":{"ha":868,"x_min":0,"x_max":694,"o":"m 521 521 l 521 694 l 174 694 l 174 521 l 521 521 m 0 0 l 0 868 l 694 868 l 694 0 l 521 0 l 521 347 l 174 347 l 174 0 l 0 0 m 0 1042 l 0 1215 l 174 1215 l 174 1042 l 0 1042 m 521 1042 l 521 1215 l 694 1215 l 694 1042 l 521 1042 m 174 1215 l 174 1389 l 521 1389 l 521 1215 l 174 1215 z "},"ã":{"ha":868,"x_min":0,"x_max":694,"o":"m 521 521 l 521 694 l 174 694 l 174 521 l 521 521 m 0 0 l 0 868 l 694 868 l 694 0 l 521 0 l 521 347 l 174 347 l 174 0 l 0 0 m 0 1042 l 0 1215 l 174 1215 l 174 1042 l 0 1042 m 347 1042 l 347 1215 l 521 1215 l 521 1042 l 347 1042 m 174 1215 l 174 1389 l 347 1389 l 347 1215 l 174 1215 m 521 1215 l 521 1389 l 694 1389 l 694 1215 l 521 1215 z "},"ä":{"ha":868,"x_min":0,"x_max":694,"o":"m 521 521 l 521 694 l 174 694 l 174 521 l 521 521 m 0 0 l 0 868 l 694 868 l 694 0 l 521 0 l 521 347 l 174 347 l 174 0 l 0 0 m 0 1042 l 0 1215 l 174 1215 l 174 1042 l 0 1042 m 521 1042 l 521 1215 l 694 1215 l 694 1042 l 521 1042 z "},"å":{"ha":868,"x_min":0,"x_max":694,"o":"m 521 521 l 521 694 l 174 694 l 174 521 l 521 521 m 0 0 l 0 868 l 694 868 l 694 0 l 521 0 l 521 347 l 174 347 l 174 0 l 0 0 m 174 1042 l 174 1215 l 521 1215 l 521 1042 l 174 1042 z "},"æ":{"ha":1389,"x_min":0,"x_max":1215,"o":"m 521 174 l 521 347 l 174 347 l 174 174 l 521 174 m 1042 521 l 1042 694 l 694 694 l 694 521 l 1042 521 m 0 0 l 0 521 l 521 521 l 521 694 l 174 694 l 174 868 l 1215 868 l 1215 347 l 694 347 l 694 174 l 1042 174 l 1042 0 l 0 0 z "},"ç":{"ha":868,"x_min":0,"x_max":694,"o":"m 347 -347 l 347 -174 l 521 -174 l 521 -347 l 347 -347 m 521 -174 l 521 0 l 0 0 l 0 868 l 694 868 l 694 694 l 174 694 l 174 174 l 694 174 l 694 -174 l 521 -174 z "},"è":{"ha":868,"x_min":0,"x_max":694,"o":"m 0 0 l 0 868 l 694 868 l 694 694 l 174 694 l 174 521 l 694 521 l 694 347 l 174 347 l 174 174 l 694 174 l 694 0 l 0 0 m 0 1042 l 0 1215 l 347 1215 l 347 1042 l 0 1042 z "},"é":{"ha":868,"x_min":0,"x_max":694,"o":"m 0 0 l 0 868 l 694 868 l 694 694 l 174 694 l 174 521 l 694 521 l 694 347 l 174 347 l 174 174 l 694 174 l 694 0 l 0 0 m 347 1042 l 347 1215 l 694 1215 l 694 1042 l 347 1042 z "},"ê":{"ha":868,"x_min":0,"x_max":694,"o":"m 0 0 l 0 868 l 694 868 l 694 694 l 174 694 l 174 521 l 694 521 l 694 347 l 174 347 l 174 174 l 694 174 l 694 0 l 0 0 m 0 1042 l 0 1215 l 174 1215 l 174 1042 l 0 1042 m 521 1042 l 521 1215 l 694 1215 l 694 1042 l 521 1042 m 174 1215 l 174 1389 l 521 1389 l 521 1215 l 174 1215 z "},"ë":{"ha":868,"x_min":0,"x_max":694,"o":"m 0 0 l 0 868 l 694 868 l 694 694 l 174 694 l 174 521 l 694 521 l 694 347 l 174 347 l 174 174 l 694 174 l 694 0 l 0 0 m 0 1042 l 0 1215 l 174 1215 l 174 1042 l 0 1042 m 521 1042 l 521 1215 l 694 1215 l 694 1042 l 521 1042 z "},"ì":{"ha":347,"x_min":-174,"x_max":174,"o":"m 0 0 l 0 868 l 174 868 l 174 0 l 0 0 m -174 1042 l -174 1215 l 174 1215 l 174 1042 l -174 1042 z "},"í":{"ha":521,"x_min":0,"x_max":347,"o":"m 0 0 l 0 868 l 174 868 l 174 0 l 0 0 m 0 1042 l 0 1215 l 347 1215 l 347 1042 l 0 1042 z "},"î":{"ha":521,"x_min":-174,"x_max":347,"o":"m 0 0 l 0 868 l 174 868 l 174 0 l 0 0 m -174 1042 l -174 1215 l 0 1215 l 0 1042 l -174 1042 m 174 1042 l 174 1215 l 347 1215 l 347 1042 l 174 1042 m 0 1215 l 0 1389 l 174 1389 l 174 1215 l 0 1215 z "},"ï":{"ha":521,"x_min":-174,"x_max":347,"o":"m 0 0 l 0 868 l 174 868 l 174 0 l 0 0 m -174 1042 l -174 1215 l 0 1215 l 0 1042 l -174 1042 m 174 1042 l 174 1215 l 347 1215 l 347 1042 l 174 1042 z "},"ð":{"ha":868,"x_min":0,"x_max":694,"o":"m 521 174 l 521 521 l 174 521 l 174 174 l 521 174 m 0 0 l 0 694 l 521 694 l 521 868 l 694 868 l 694 0 l 0 0 m 347 868 l 347 1042 l 521 1042 l 521 868 l 347 868 z "},"ñ":{"ha":868,"x_min":0,"x_max":694,"o":"m 0 0 l 0 868 l 694 868 l 694 0 l 521 0 l 521 694 l 174 694 l 174 0 l 0 0 m 0 1042 l 0 1215 l 174 1215 l 174 1042 l 0 1042 m 347 1042 l 347 1215 l 521 1215 l 521 1042 l 347 1042 m 174 1215 l 174 1389 l 347 1389 l 347 1215 l 174 1215 m 521 1215 l 521 1389 l 694 1389 l 694 1215 l 521 1215 z "},"ò":{"ha":868,"x_min":0,"x_max":694,"o":"m 521 174 l 521 694 l 174 694 l 174 174 l 521 174 m 0 0 l 0 868 l 694 868 l 694 0 l 0 0 m 0 1042 l 0 1215 l 347 1215 l 347 1042 l 0 1042 z "},"ó":{"ha":868,"x_min":0,"x_max":694,"o":"m 521 174 l 521 694 l 174 694 l 174 174 l 521 174 m 0 0 l 0 868 l 694 868 l 694 0 l 0 0 m 347 1042 l 347 1215 l 694 1215 l 694 1042 l 347 1042 z "},"ô":{"ha":868,"x_min":0,"x_max":694,"o":"m 521 174 l 521 694 l 174 694 l 174 174 l 521 174 m 0 0 l 0 868 l 694 868 l 694 0 l 0 0 m 0 1042 l 0 1215 l 174 1215 l 174 1042 l 0 1042 m 521 1042 l 521 1215 l 694 1215 l 694 1042 l 521 1042 m 174 1215 l 174 1389 l 521 1389 l 521 1215 l 174 1215 z "},"õ":{"ha":868,"x_min":0,"x_max":694,"o":"m 521 174 l 521 694 l 174 694 l 174 174 l 521 174 m 0 0 l 0 868 l 694 868 l 694 0 l 0 0 m 0 1042 l 0 1215 l 174 1215 l 174 1042 l 0 1042 m 347 1042 l 347 1215 l 521 1215 l 521 1042 l 347 1042 m 174 1215 l 174 1389 l 347 1389 l 347 1215 l 174 1215 m 521 1215 l 521 1389 l 694 1389 l 694 1215 l 521 1215 z "},"ö":{"ha":868,"x_min":0,"x_max":694,"o":"m 521 174 l 521 694 l 174 694 l 174 174 l 521 174 m 0 0 l 0 868 l 694 868 l 694 0 l 0 0 m 0 1042 l 0 1215 l 174 1215 l 174 1042 l 0 1042 m 521 1042 l 521 1215 l 694 1215 l 694 1042 l 521 1042 z "},"÷":{"ha":1042,"x_min":0,"x_max":868,"o":"m 347 0 l 347 174 l 521 174 l 521 0 l 347 0 m 0 347 l 0 521 l 868 521 l 868 347 l 0 347 m 347 694 l 347 868 l 521 868 l 521 694 l 347 694 z "},"ø":{"ha":868,"x_min":0,"x_max":694,"o":"m 521 174 l 521 347 l 347 347 l 347 521 l 521 521 l 521 694 l 174 694 l 174 347 l 347 347 l 347 174 l 521 174 m 0 0 l 0 868 l 694 868 l 694 0 l 0 0 z "},"ù":{"ha":868,"x_min":0,"x_max":694,"o":"m 0 0 l 0 868 l 174 868 l 174 174 l 521 174 l 521 868 l 694 868 l 694 0 l 0 0 m 0 1042 l 0 1215 l 347 1215 l 347 1042 l 0 1042 z "},"ú":{"ha":868,"x_min":0,"x_max":694,"o":"m 0 0 l 0 868 l 174 868 l 174 174 l 521 174 l 521 868 l 694 868 l 694 0 l 0 0 m 347 1042 l 347 1215 l 694 1215 l 694 1042 l 347 1042 z "},"û":{"ha":868,"x_min":0,"x_max":694,"o":"m 0 0 l 0 868 l 174 868 l 174 174 l 521 174 l 521 868 l 694 868 l 694 0 l 0 0 m 0 1042 l 0 1215 l 174 1215 l 174 1042 l 0 1042 m 521 1042 l 521 1215 l 694 1215 l 694 1042 l 521 1042 m 174 1215 l 174 1389 l 521 1389 l 521 1215 l 174 1215 z "},"ü":{"ha":868,"x_min":0,"x_max":694,"o":"m 0 0 l 0 868 l 174 868 l 174 174 l 521 174 l 521 868 l 694 868 l 694 0 l 0 0 m 0 1042 l 0 1215 l 174 1215 l 174 1042 l 0 1042 m 521 1042 l 521 1215 l 694 1215 l 694 1042 l 521 1042 z "},"ý":{"ha":868,"x_min":0,"x_max":694,"o":"m 174 0 l 174 174 l 521 174 l 521 347 l 0 347 l 0 868 l 174 868 l 174 521 l 521 521 l 521 868 l 694 868 l 694 0 l 174 0 m 0 1042 l 0 1215 l 347 1215 l 347 1042 l 0 1042 z "},"þ":{"ha":868,"x_min":0,"x_max":694,"o":"m 521 347 l 521 521 l 174 521 l 174 347 l 521 347 m 0 0 l 0 868 l 174 868 l 174 694 l 694 694 l 694 174 l 174 174 l 174 0 l 0 0 z "},"ÿ":{"ha":868,"x_min":0,"x_max":694,"o":"m 174 0 l 174 174 l 521 174 l 521 347 l 0 347 l 0 868 l 174 868 l 174 521 l 521 521 l 521 868 l 694 868 l 694 0 l 174 0 m 0 1042 l 0 1215 l 174 1215 l 174 1042 l 0 1042 m 521 1042 l 521 1215 l 694 1215 l 694 1042 l 521 1042 z "},"Ÿ":{"ha":868,"x_min":0,"x_max":694,"o":"m 174 0 l 174 174 l 521 174 l 521 347 l 0 347 l 0 868 l 174 868 l 174 521 l 521 521 l 521 868 l 694 868 l 694 0 l 174 0 m 0 1042 l 0 1215 l 174 1215 l 174 1042 l 0 1042 m 521 1042 l 521 1215 l 694 1215 l 694 1042 l 521 1042 z "},"ẞ":{"ha":868,"x_min":0,"x_max":694,"o":"m 347 0 l 347 174 l 521 174 l 521 347 l 694 347 l 694 0 l 347 0 m 347 347 l 347 521 l 521 521 l 521 347 l 347 347 m 0 0 l 0 868 l 694 868 l 694 521 l 521 521 l 521 694 l 174 694 l 174 0 l 0 0 z "},"—":{"ha":1215,"x_min":0,"x_max":1042,"o":"m 0 347 l 0 521 l 1042 521 l 1042 347 l 0 347 z "},"‘":{"ha":347,"x_min":0,"x_max":174,"o":"m 0 521 l 0 868 l 174 868 l 174 521 l 0 521 z "},"’":{"ha":347,"x_min":0,"x_max":174,"o":"m 0 521 l 0 868 l 174 868 l 174 521 l 0 521 z "},"‚":{"ha":347,"x_min":0,"x_max":174,"o":"m 0 -174 l 0 174 l 174 174 l 174 -174 l 0 -174 z "},"‛":{"ha":347,"x_min":0,"x_max":174,"o":"m 0 521 l 0 868 l 174 868 l 174 521 l 0 521 z "},"“":{"ha":694,"x_min":0,"x_max":521,"o":"m 0 521 l 0 868 l 174 868 l 174 521 l 0 521 m 347 521 l 347 868 l 521 868 l 521 521 l 347 521 z "},"”":{"ha":694,"x_min":0,"x_max":521,"o":"m 0 521 l 0 868 l 174 868 l 174 521 l 0 521 m 347 521 l 347 868 l 521 868 l 521 521 l 347 521 z "},"„":{"ha":694,"x_min":0,"x_max":521,"o":"m 0 -174 l 0 174 l 174 174 l 174 -174 l 0 -174 m 347 -174 l 347 174 l 521 174 l 521 -174 l 347 -174 z "},"†":{"ha":868,"x_min":174,"x_max":694,"o":"m 347 -174 l 347 521 l 174 521 l 174 694 l 347 694 l 347 868 l 521 868 l 521 694 l 694 694 l 694 521 l 521 521 l 521 -174 l 347 -174 z "},"•":{"ha":521,"x_min":0,"x_max":347,"o":"m 0 347 l 0 694 l 347 694 l 347 347 l 0 347 z "},"…":{"ha":1042,"x_min":0,"x_max":868,"o":"m 0 0 l 0 174 l 174 174 l 174 0 l 0 0 m 347 0 l 347 174 l 521 174 l 521 0 l 347 0 m 694 0 l 694 174 l 868 174 l 868 0 l 694 0 z "},"‹":{"ha":521,"x_min":0,"x_max":347,"o":"m 174 0 l 174 174 l 347 174 l 347 0 l 174 0 m 0 174 l 0 347 l 174 347 l 174 174 l 0 174 m 174 347 l 174 521 l 347 521 l 347 347 l 174 347 z "},"›":{"ha":521,"x_min":0,"x_max":347,"o":"m 0 0 l 0 174 l 174 174 l 174 0 l 0 0 m 174 174 l 174 347 l 347 347 l 347 174 l 174 174 m 0 347 l 0 521 l 174 521 l 174 347 l 0 347 z "},"€":{"ha":868,"x_min":0,"x_max":694,"o":"m 347 347 l 347 521 l 694 521 l 694 347 l 347 347 m 0 0 l 0 868 l 694 868 l 694 694 l 174 694 l 174 174 l 694 174 l 694 0 l 0 0 z "},"™":{"ha":1736,"x_min":0,"x_max":1563,"o":"m 174 347 l 174 694 l 0 694 l 0 868 l 521 868 l 521 694 l 347 694 l 347 347 l 174 347 m 694 347 l 694 868 l 1563 868 l 1563 347 l 1389 347 l 1389 694 l 1215 694 l 1215 521 l 1042 521 l 1042 694 l 868 694 l 868 347 l 694 347 z "},"ﬁ":{"ha":868,"x_min":0,"x_max":694,"o":"m 0 0 l 0 694 l 174 694 l 174 521 l 694 521 l 694 0 l 521 0 l 521 347 l 174 347 l 174 0 l 0 0 m 174 694 l 174 868 l 347 868 l 347 694 l 174 694 m 521 694 l 521 868 l 694 868 l 694 694 l 521 694 z "},"ﬂ":{"ha":868,"x_min":0,"x_max":694,"o":"m 174 694 l 174 868 l 347 868 l 347 694 l 174 694 m 0 0 l 0 694 l 174 694 l 174 521 l 521 521 l 521 868 l 694 868 l 694 0 l 521 0 l 521 347 l 174 347 l 174 0 l 0 0 z "}}}
